HIERARCHY
ROOT root
{
	OFFSET 0.00 0.00 0.00
	CHANNELS 6 Xposition Yposition Zposition Zrotation Xrotation Yrotation
	JOINT lowerback
	{
		OFFSET 0 0 0
		CHANNELS 6 Xposition Yposition Zposition Zrotation Xrotation Yrotation
		JOINT upperback
		{
			OFFSET -0.214371 12.3768 -1.12219
			CHANNELS 6 Xposition Yposition Zposition Zrotation Xrotation Yrotation
			JOINT thorax
			{
				OFFSET -0.00137213 12.3873 0.296195
				CHANNELS 6 Xposition Yposition Zposition Zrotation Xrotation Yrotation
				JOINT lowerneck
				{
					OFFSET 0.0883157 12.5016 0.82912
					CHANNELS 6 Xposition Yposition Zposition Zrotation Xrotation Yrotation
					JOINT upperneck
					{
						OFFSET -1 10.1794 0.943522
						CHANNELS 6 Xposition Yposition Zposition Zrotation Xrotation Yrotation
						JOINT head
						{
							OFFSET 0.667525 10.2797 -1.57149
							CHANNELS 6 Xposition Yposition Zposition Zrotation Xrotation Yrotation
							End Site
							{
								OFFSET 0 0 0
							}
						}
					}
				}
				JOINT lclavicle
				{
					OFFSET 0.0883157 12.5016 0.82912
					CHANNELS 6 Xposition Yposition Zposition Zrotation Xrotation Yrotation
					JOINT lhumerus
					{
						OFFSET 20.61 4.45006 1.43784
						CHANNELS 6 Xposition Yposition Zposition Zrotation Xrotation Yrotation
						JOINT lradius
						{
							OFFSET 0 -30.3438 0
							CHANNELS 6 Xposition Yposition Zposition Zrotation Xrotation Yrotation
							JOINT lwrist
							{
								OFFSET 0 -18.964 0
								CHANNELS 6 Xposition Yposition Zposition Zrotation Xrotation Yrotation
								JOINT lhand
								{
									OFFSET 0 -9.48199 0
									CHANNELS 6 Xposition Yposition Zposition Zrotation Xrotation Yrotation
									JOINT lfingers
									{
										OFFSET 0 -3.17138 0
										CHANNELS 6 Xposition Yposition Zposition Zrotation Xrotation Yrotation
										End Site
										{
											OFFSET 0 -2.55685 0
										}
									}
								}
								JOINT lthumb
								{
									OFFSET 0 -9.48199 0
									CHANNELS 6 Xposition Yposition Zposition Zrotation Xrotation Yrotation
									End Site
									{
										OFFSET 0 -3.67114 0
									}
								}
							}
						}
					}
				}
				JOINT rclavicle
				{
					OFFSET 0.0883157 12.5016 0.82912
					CHANNELS 6 Xposition Yposition Zposition Zrotation Xrotation Yrotation
					JOINT rhumerus
					{
						OFFSET -20.61 4.45 1.44
						CHANNELS 6 Xposition Yposition Zposition Zrotation Xrotation Yrotation
						JOINT rradius
						{
							OFFSET 0 -29.5102 0
							CHANNELS 6 Xposition Yposition Zposition Zrotation Xrotation Yrotation
							JOINT rwrist
							{
								OFFSET 0 -19.2342 0
								CHANNELS 6 Xposition Yposition Zposition Zrotation Xrotation Yrotation
								JOINT rhand
								{
									OFFSET 0 -9.61712 0
									CHANNELS 6 Xposition Yposition Zposition Zrotation Xrotation Yrotation
									JOINT rfingers
									{
										OFFSET 0 -3.29215 0
										CHANNELS 6 Xposition Yposition Zposition Zrotation Xrotation Yrotation
										End Site
										{
											OFFSET 0 -2.557 0
										}
									}
								}
								JOINT rthumb
								{
									OFFSET 0 -9.61712 0
									CHANNELS 6 Xposition Yposition Zposition Zrotation Xrotation Yrotation
									End Site
									{
										OFFSET 0 -3.671 0
									}
								}
							}
						}
					}
				}
			}
		}
	}
	JOINT rfemur
	{
		OFFSET -8.46272 -9.62775 4.76248
		CHANNELS 6 Xposition Yposition Zposition Zrotation Xrotation Yrotation
		JOINT rtibia
		{
			OFFSET 1.00552e-005 -38.0331 0
			CHANNELS 6 Xposition Yposition Zposition Zrotation Xrotation Yrotation
			JOINT rfoot
			{
				OFFSET 1.14428e-005 -43.2815 0
				CHANNELS 6 Xposition Yposition Zposition Zrotation Xrotation Yrotation
				JOINT rtoes
				{
					OFFSET 0 -14.1868 -3.08763
					CHANNELS 6 Xposition Yposition Zposition Zrotation Xrotation Yrotation
					End Site
					{
						OFFSET 0 -7.27332 0
					}
				}
			}
		}
	}
	JOINT lfemur
	{
		OFFSET 9.10607 -9.62778 4.76249
		CHANNELS 6 Xposition Yposition Zposition Zrotation Xrotation Yrotation
		JOINT ltibia
		{
			OFFSET -1.01399e-005 -38.3535 0
			CHANNELS 6 Xposition Yposition Zposition Zrotation Xrotation Yrotation
			JOINT lfoot
			{
				OFFSET -1.12937e-005 -42.7176 0
				CHANNELS 6 Xposition Yposition Zposition Zrotation Xrotation Yrotation
				JOINT ltoes
				{
					OFFSET 0 -13.9965 -2.83857
					CHANNELS 6 Xposition Yposition Zposition Zrotation Xrotation Yrotation
					End Site
					{
						OFFSET 0 -7.16348 0
					}
				}
			}
		}
	}
}
MOTION
Frames: 4
Frame Time: 0.00833333
-2.51377	96.3106	45.5522	-1.18427	1.01118	7.33924	0 0 0 4.5916	0.907505	0.711058	-0.214371 12.3768 -1.12219 2.08517	11.2954	0.0154528	-0.00137213 12.3873 0.296195 -0.374396	11.6304	0.129469	0.0883157 12.5016 0.82912 1.11018	-3.98965	-1.90854	-1 10.1794 0.943522 5.82177	26.9004	-5.25063	0.667525 10.2797 -1.57149 0.829124	9.16741	-2.05815	0.0883157 12.5016 0.82912 -15	0	-0	20.61 4.45006 1.43784 13.7067	-7.25536	-177.722	0 -30.3438 0 -0	29.2903	-0	0 -18.964 0 1.36125e-014	-2.39364e-015	-109.946	0 -9.48199 0 1.22245	4.37968	-2.58917e-014	0 -3.17138 0 -0	7.12502	-0	0 -9.48199 0 25	15	-1.36605e-015	0.0883157 12.5016 0.82912 15	0	-0	-20.61 4.45 1.44 -18.1576	-19.7386	-178.874	0 -29.5102 0 -0	23.345	-0	0 -19.2342 0 8.70281e-016	-3.38462e-015	118.84	0 -9.61712 0 1.22	4.38	-0	0 -3.29215 0 -0	7.12502	-0	0 -9.61712 0 25	15	-7.97034e-015	-8.46272 -9.62775 4.76248 5.98875	-2.55172	-1.28957	1.00552e-005 -38.0331 0 -0	30.2433	-0	1.14428e-005 -43.2815 0 -61.5513	-82.2043	-61.7736	0 -14.1868 -3.08763 -0	-31.108	-0	9.10607 -9.62778 4.76249 2.92344	-26.485	6.96076	-1.01399e-005 -38.3535 0 -0	27.0033	-0	-1.12937e-005 -42.7176 0 14.8036	-70.6122	15.652	0 -13.9965 -2.83857 -0	-47.3666	-0
-2.36582	96.2366	45.9391	-1.29589	0.985897	7.05773	0 0 0 4.56873	0.853501	0.724365	-0.214371 12.3768 -1.12219 2.06149	11.262	0.0373224	-0.00137213 12.3873 0.296195 -0.382533	11.6244	0.139536	0.0883157 12.5016 0.82912 1.18019	-3.98569	-1.82247	-1 10.1794 0.943522 5.6171	26.9426	-5.09409	0.667525 10.2797 -1.57149 0.774468	9.17269	-2.00013	0.0883157 12.5016 0.82912 -15	0	-0	20.61 4.45006 1.43784 13.6247	-7.10251	-177.461	0 -30.3438 0 -0	28.9398	-0	0 -18.964 0 1.36082e-014	-2.40549e-015	-110.049	0 -9.48199 0 1.22245	4.37968	-2.58917e-014	0 -3.17138 0 -0	7.12502	-0	0 -9.48199 0 25	15	-1.36605e-015	0.0883157 12.5016 0.82912 15	0	-0	-20.61 4.45 1.44 -18.114	-19.6344	-178.772	0 -29.5102 0 -0	23.339	-0	0 -19.2342 0 8.70813e-016	-3.38558e-015	118.849	0 -9.61712 0 1.22	4.38	-0	0 -3.29215 0 -0	7.12502	-0	0 -9.61712 0 25	15	-7.97034e-015	-8.46272 -9.62775 4.76248 6.03613	-2.26127	-1.1612	1.00552e-005 -38.0331 0 -0	30.2407	-0	1.14428e-005 -43.2815 0 -61.3507	-82.3954	-61.5632	0 -14.1868 -3.08763 -0	-31.4537	-0	9.10607 -9.62778 4.76249 3.02635	-26.3319	6.80875	-1.01399e-005 -38.3535 0 -0	27.0496	-0	-1.12937e-005 -42.7176 0 14.4347	-70.4988	15.2742	0 -13.9965 -2.83857 -0	-47.0436	-0
-2.21539	96.1582	46.3279	-1.39862	0.953176	6.76874	0 0 0 4.53362	0.811685	0.737325	-0.214371 12.3768 -1.12219 2.03208	11.2282	0.0606806	-0.00137213 12.3873 0.296195 -0.389715	11.6102	0.149346	0.0883157 12.5016 0.82912 1.25442	-3.97796	-1.73226	-1 10.1794 0.943522 5.40855	26.9796	-4.93065	0.667525 10.2797 -1.57149 0.719054	9.1737	-1.93915	0.0883157 12.5016 0.82912 -15	0	-0	20.61 4.45006 1.43784 13.5527	-6.95912	-177.197	0 -30.3438 0 -0	28.5714	-0	0 -18.964 0 1.36036e-014	-2.41803e-015	-110.158	0 -9.48199 0 1.22245	4.37968	-2.58917e-014	0 -3.17138 0 -0	7.12502	-0	0 -9.48199 0 25	15	-1.36605e-015	0.0883157 12.5016 0.82912 15	0	-0	-20.61 4.45 1.44 -18.062	-19.5174	-178.69	0 -29.5102 0 -0	23.339	-0	0 -19.2342 0 8.71463e-016	-3.38676e-015	118.86	0 -9.61712 0 1.22	4.38	-0	0 -3.29215 0 -0	7.12502	-0	0 -9.61712 0 25	15	-7.97034e-015	-8.46272 -9.62775 4.76248 6.07369	-1.97151	-1.02369	1.00552e-005 -38.0331 0 -0	30.2613	-0	1.14428e-005 -43.2815 0 -61.1902	-82.5821	-61.3931	0 -14.1868 -3.08763 -0	-31.8217	-0	9.10607 -9.62778 4.76249 3.14366	-26.2025	6.71729	-1.01399e-005 -38.3535 0 -0	27.2474	-0	-1.12937e-005 -42.7176 0 14.065	-70.3578	14.8974	0 -13.9965 -2.83857 -0	-46.6314	-0
-2.06248	96.0774	46.7187	-1.49058	0.913312	6.47389	0 0 0 4.48612	0.783427	0.750432	-0.214371 12.3768 -1.12219 1.99551	11.195	0.0862953	-0.00137213 12.3873 0.296195 -0.397296	11.5882	0.159334	0.0883157 12.5016 0.82912 1.33276	-3.96799	-1.6388	-1 10.1794 0.943522 5.19805	27.0096	-4.76174	0.667525 10.2797 -1.57149 0.663426	9.17385	-1.87566	0.0883157 12.5016 0.82912 -15	0	-0	20.61 4.45006 1.43784 13.493	-6.83139	-176.928	0 -30.3438 0 -0	28.1816	-0	0 -18.964 0 1.35985e-014	-2.43193e-015	-110.279	0 -9.48199 0 1.22245	4.37968	-2.58917e-014	0 -3.17138 0 -0	7.12502	-0	0 -9.48199 0 25	15	-1.36605e-015	0.0883157 12.5016 0.82912 15	0	-0	-20.61 4.45 1.44 -17.9988	-19.3891	-178.632	0 -29.5102 0 -0	23.3458	-0	0 -19.2342 0 8.72291e-016	-3.38826e-015	118.874	0 -9.61712 0 1.22	4.38	-0	0 -3.29215 0 -0	7.12502	-0	0 -9.61712 0 25	15	-7.97034e-015	-8.46272 -9.62775 4.76248 6.09906	-1.68545	-0.878566	1.00552e-005 -38.0331 0 -0	30.3083	-0	1.14428e-005 -43.2815 0 -61.0505	-82.7622	-61.2443	0 -14.1868 -3.08763 -0	-32.2146	-0	9.10607 -9.62778 4.76249 3.27103	-26.0965	6.68599	-1.01399e-005 -38.3535 0 -0	27.5773	-0	-1.12937e-005 -42.7176 0 13.6955	-70.1916	14.5223	0 -13.9965 -2.83857 -0	-46.1302	-0
